<svg width="48" height="48" viewBox="0 0 48 48" fill="none" xmlns="http://www.w3.org/2000/svg">
  <rect width="48" height="48" rx="8.88889" fill="white"/>
  <path d="M24 4C21.8 4 20 5.8 20 8C20 10.2 21.8 12 24 12C26.2 12 28 10.2 28 8C28 5.8 26.2 4 24 4ZM15 24C15 19.6 18.6 16 23 16H25C29.4 16 33 19.6 33 24C33 28.4 29.4 32 25 32H23C18.6 32 15 28.4 15 24ZM23 34C27.4 34 31 37.6 31 42H17C17 37.6 20.6 34 23 34Z" fill="url(#paint0_linear_tree)"/>
  <defs>
    <linearGradient id="paint0_linear_tree" x1="8" y1="35.5" x2="38.0109" y2="10.5484" gradientUnits="userSpaceOnUse">
      <stop stop-color="#56c271"/>
      <stop offset="1" stop-color="#2a9d8f"/>
    </linearGradient>
  </defs>
</svg>
